<?xml version="1.0" encoding="UTF-8" standalone="no"?>
<!-- Created with Inkscape (http://www.inkscape.org/) -->

<svg
   width="48"
   height="48"
   viewBox="0 0 12.7 12.7"
   version="1.1"
   id="svg5"
   inkscape:version="1.2.2 (732a01da63, 2022-12-09)"
   sodipodi:docname="drawing.svg"
   xmlns:inkscape="http://www.inkscape.org/namespaces/inkscape"
   xmlns:sodipodi="http://sodipodi.sourceforge.net/DTD/sodipodi-0.dtd"
   xmlns="http://www.w3.org/2000/svg"
   xmlns:svg="http://www.w3.org/2000/svg">
  <sodipodi:namedview
     id="namedview7"
     pagecolor="#ffffff"
     bordercolor="#000000"
     borderopacity="0.25"
     inkscape:showpageshadow="2"
     inkscape:pageopacity="0.0"
     inkscape:pagecheckerboard="0"
     inkscape:deskcolor="#d1d1d1"
     inkscape:document-units="mm"
     showgrid="false"
     inkscape:zoom="20.70196"
     inkscape:cx="24.804415"
     inkscape:cy="24.031541"
     inkscape:window-width="2560"
     inkscape:window-height="1361"
     inkscape:window-x="-9"
     inkscape:window-y="204"
     inkscape:window-maximized="1"
     inkscape:current-layer="layer1" />
  <defs
     id="defs2" />
  <g
     inkscape:label="Layer 1"
     inkscape:groupmode="layer"
     id="layer1">
    <path
       style="fill:none;stroke:#000000;stroke-width:0.52916667;stroke-linecap:round;stroke-linejoin:round;stroke-dasharray:none"
       d="m 3.4507602,1.3291817 c 0,0 -1.6399363,1.0096969 -2.1982621,1.9554308 C 0.69417235,4.2303464 0.97622094,5.5361879 2.735047,5.0227734 4.4938731,4.5093589 6.1158339,2.7173529 7.3999636,1.8659667 8.6840932,1.0145805 10.6835,2.4905343 9.0870019,3.7191527 7.4905036,4.9477711 4.6292866,6.8339056 3.2207096,7.7578203 1.8121325,8.6817351 2.9684602,11.092467 5.1377986,9.7899345 7.3071369,8.487402 9.2235712,6.0256732 10.237256,5.5851193 11.25094,5.1445654 12.316385,6.3402137 11.451412,7.3871832 10.586439,8.4341527 9.8581997,8.1460909 8.8825123,9.559884 c -0.9756874,1.413793 0.4217596,1.94265 0.4217596,1.94265"
       id="path1679"
       sodipodi:nodetypes="czzzzzzzzzc" />
  </g>
</svg>
